<?xml version="1.0" standalone="no"?>
<!DOCTYPE svg PUBLIC "-//W3C//DTD SVG 20010904//EN"
 "http://www.w3.org/TR/2001/REC-SVG-20010904/DTD/svg10.dtd">
<svg version="1.0" xmlns="http://www.w3.org/2000/svg"
 width="123.000000pt" height="123.000000pt" viewBox="0 0 123.000000 123.000000"
 preserveAspectRatio="xMidYMid meet">

<g transform="translate(0.000000,123.000000) scale(0.100000,-0.100000)"
fill="#000000" stroke="none">
<path d="M582 1165 c-20 -42 -22 -60 -22 -242 l0 -197 -32 31 c-52 48 -96 66
-163 66 -99 0 -189 -63 -215 -150 -9 -30 -20 -42 -50 -55 -127 -54 -91 -248
46 -248 51 0 56 -14 19 -45 -13 -11 -27 -32 -31 -47 -5 -22 0 -34 26 -59 25
-26 31 -38 26 -60 -4 -21 1 -36 21 -60 23 -27 31 -30 60 -26 28 5 38 1 60 -24
36 -40 80 -40 116 1 22 25 32 29 57 23 46 -9 80 27 80 83 0 29 5 44 16 48 9 3
150 6 315 6 l299 0 0 455 c0 448 0 455 -22 500 l-22 45 -281 0 -281 0 -22 -45z
m568 1 c0 -2 3 -11 6 -20 6 -14 -22 -16 -270 -16 -152 0 -276 2 -276 4 0 2 3
11 6 20 5 14 39 16 270 16 145 0 264 -2 264 -4z m20 -126 l0 -60 -285 0 -285
0 0 60 0 60 285 0 285 0 0 -60z m0 -155 l0 -55 -285 0 -285 0 0 55 0 55 285 0
285 0 0 -55z m-704 -125 c45 -28 72 -69 86 -128 12 -48 13 -49 39 -40 53 18
119 -33 119 -93 0 -36 -28 -77 -61 -88 -43 -15 -69 -14 -69 2 0 8 -11 24 -25
37 -19 18 -31 21 -56 16 -26 -5 -36 -1 -59 24 -38 41 -81 41 -111 0 -20 -26
-27 -29 -59 -24 -34 6 -40 3 -68 -32 -31 -37 -31 -37 -71 -25 -48 14 -71 43
-71 91 0 48 23 77 71 91 36 11 41 17 51 57 13 53 71 116 120 131 47 15 124 5
164 -19z m704 -30 l0 -60 -285 0 -285 0 0 60 0 60 285 0 285 0 0 -60z m0 -155
l0 -55 -210 0 -210 0 -14 35 c-8 19 -30 44 -48 55 l-33 20 258 0 257 0 0 -55z
m-741 -126 c26 -26 36 -29 61 -24 43 10 59 -7 53 -54 -5 -34 -2 -41 26 -62 39
-29 39 -44 0 -80 -27 -25 -31 -35 -26 -64 7 -42 -7 -55 -58 -53 -30 1 -43 -4
-59 -25 -28 -34 -54 -34 -82 0 -16 21 -29 26 -59 25 -51 -2 -65 11 -58 53 5
29 1 39 -26 64 -17 16 -31 34 -31 41 0 7 14 25 31 41 27 25 31 35 26 64 -7 43
11 59 53 50 26 -6 35 -2 58 24 34 38 53 39 91 0z m741 -84 l0 -115 -270 0
-270 0 0 30 c0 20 -8 35 -25 46 -38 25 -32 44 13 44 49 0 100 32 118 75 l14
35 210 0 210 0 0 -115z"/>
<path d="M641 1046 c-12 -14 -5 -26 16 -26 15 0 18 26 4 34 -5 3 -14 0 -20 -8z"/>
<path d="M714 1049 c-10 -17 13 -36 27 -22 12 12 4 33 -11 33 -5 0 -12 -5 -16
-11z"/>
<path d="M797 1053 c-4 -3 -7 -12 -7 -20 0 -15 26 -18 34 -4 7 11 -18 33 -27
24z"/>
<path d="M947 893 c-13 -12 -7 -23 13 -23 11 0 20 7 20 15 0 15 -21 21 -33 8z"/>
<path d="M1020 885 c0 -10 7 -15 18 -13 21 4 19 22 -2 26 -10 2 -16 -3 -16
-13z"/>
<path d="M1100 885 c0 -8 7 -15 15 -15 8 0 15 7 15 15 0 8 -7 15 -15 15 -8 0
-15 -7 -15 -15z"/>
<path d="M305 736 c-37 -16 -70 -52 -84 -89 -15 -39 -14 -47 7 -47 10 0 23 15
34 41 13 31 26 44 57 57 26 11 41 24 41 35 0 20 -14 21 -55 3z"/>
<path d="M640 729 c0 -24 23 -21 28 4 2 10 -3 17 -12 17 -10 0 -16 -9 -16 -21z"/>
<path d="M714 739 c-10 -17 13 -36 27 -22 12 12 4 33 -11 33 -5 0 -12 -5 -16
-11z"/>
<path d="M794 739 c-10 -17 13 -36 27 -22 12 12 4 33 -11 33 -5 0 -12 -5 -16
-11z"/>
<path d="M951 590 c-16 -9 -6 -30 15 -30 15 0 20 25 6 34 -4 2 -14 1 -21 -4z"/>
<path d="M1027 593 c-4 -3 -7 -12 -7 -20 0 -15 26 -18 34 -4 7 11 -18 33 -27
24z"/>
<path d="M1106 593 c-12 -12 -6 -33 9 -33 8 0 15 6 15 14 0 17 -14 28 -24 19z"/>
<path d="M312 380 c-59 -36 -78 -118 -42 -177 27 -45 62 -65 115 -65 100 0
162 97 119 187 -33 71 -123 97 -192 55z m141 -51 c15 -16 27 -41 27 -55 0 -70
-69 -119 -131 -94 -77 32 -80 137 -5 174 40 21 74 13 109 -25z"/>
<path d="M352 314 c-32 -22 -30 -69 4 -91 24 -15 29 -15 53 -2 36 20 41 71 9
93 -28 20 -38 20 -66 0z m48 -44 c0 -11 -7 -20 -15 -20 -8 0 -15 9 -15 20 0
11 7 20 15 20 8 0 15 -9 15 -20z"/>
<path d="M790 365 l0 -75 75 0 75 0 0 75 0 75 -75 0 -75 0 0 -75z m110 0 c0
-33 -2 -35 -35 -35 -33 0 -35 2 -35 35 0 33 2 35 35 35 33 0 35 -2 35 -35z"/>
<path d="M980 365 l0 -75 75 0 75 0 0 75 0 75 -75 0 -75 0 0 -75z m120 0 c0
-34 -1 -35 -40 -35 -39 0 -40 1 -40 35 0 34 1 35 40 35 39 0 40 -1 40 -35z"/>
<path d="M90 1139 c-38 -55 -46 -89 -21 -89 5 0 18 15 30 33 l21 32 0 -122 c0
-103 2 -123 15 -123 13 0 15 20 15 123 l0 122 21 -32 c23 -36 36 -41 45 -19 5
13 -69 136 -81 136 -2 0 -23 -27 -45 -61z"/>
<path d="M392 1133 c-34 -51 -41 -68 -30 -74 19 -13 22 -12 40 19 17 26 17 24
18 -90 0 -111 1 -118 20 -118 19 0 20 7 20 118 l0 117 24 -30 c19 -23 27 -27
37 -18 9 9 3 26 -31 78 -23 36 -45 65 -49 65 -3 0 -26 -30 -49 -67z"/>
<path d="M270 1048 l0 -123 -21 32 c-12 20 -26 30 -35 26 -8 -3 -14 -8 -14
-11 0 -10 82 -132 89 -132 3 0 25 29 48 64 34 52 40 66 29 76 -11 8 -19 4 -35
-17 l-20 -28 -1 118 c0 110 -1 117 -20 117 -19 0 -20 -7 -20 -122z"/>
</g>
</svg>
