<?xml version="1.0" standalone="no"?>
<!DOCTYPE svg PUBLIC "-//W3C//DTD SVG 20010904//EN"
 "http://www.w3.org/TR/2001/REC-SVG-20010904/DTD/svg10.dtd">
<svg version="1.0" xmlns="http://www.w3.org/2000/svg"
 width="141.000000pt" height="141.000000pt" viewBox="0 0 141.000000 141.000000"
 preserveAspectRatio="xMidYMid meet">

<g transform="translate(0.000000,141.000000) scale(0.100000,-0.100000)"
fill="#000000" stroke="none">
<path d="M643 1394 c-24 -12 -58 -56 -133 -175 l-102 -159 -96 0 c-112 0 -165
-20 -197 -72 -19 -31 -20 -52 -20 -353 0 -290 2 -323 18 -353 23 -42 85 -71
150 -72 l47 0 0 -93 c0 -95 8 -117 41 -117 10 0 78 47 153 105 l135 105 278 0
c251 0 282 2 320 19 77 35 78 41 78 406 0 301 -1 322 -20 353 -32 52 -85 72
-197 72 l-96 0 -102 159 c-79 124 -109 163 -135 175 -42 20 -81 20 -122 0z
m106 -44 c32 -17 381 -574 381 -607 0 -14 -13 -37 -29 -54 l-29 -29 -367 0
-367 0 -29 29 c-31 31 -36 59 -17 94 35 67 342 545 360 560 22 19 69 22 97 7z
m-379 -347 c0 -3 -29 -52 -65 -108 -73 -115 -83 -161 -45 -223 37 -60 51 -62
445 -62 394 0 408 2 445 62 38 62 28 108 -45 223 -36 56 -65 105 -65 108 0 4
38 7 84 7 75 0 88 -3 113 -24 l28 -24 0 -327 0 -327 -28 -24 -28 -24 -289 0
-289 0 -88 -67 c-48 -37 -110 -85 -138 -106 l-50 -40 -3 94 c-3 111 -9 119
-93 119 -47 0 -63 5 -86 24 l-28 24 0 327 0 327 28 24 c25 21 38 24 113 24 46
0 84 -3 84 -7z"/>
<path d="M643 1194 c-26 -26 -26 -27 -19 -137 4 -61 11 -118 16 -128 5 -9 22
-22 39 -28 24 -10 34 -10 59 3 16 8 32 22 35 30 3 8 9 64 13 124 7 109 7 110
-19 136 -18 18 -37 26 -62 26 -25 0 -44 -8 -62 -26z m96 -43 c9 -17 -2 -182
-14 -201 -8 -13 -32 -13 -40 0 -4 6 -11 52 -16 103 -8 86 -7 93 12 109 22 19
45 15 58 -11z"/>
<path d="M666 829 c-52 -41 -25 -119 41 -119 63 0 88 75 39 117 -33 28 -46 29
-80 2z m62 -52 c4 -20 -25 -34 -40 -19 -15 15 -1 44 19 40 10 -2 19 -11 21
-21z"/>
<path d="M263 524 c-8 -21 14 -34 58 -34 39 0 60 15 52 36 -8 21 -102 19 -110
-2z"/>
<path d="M425 530 c-4 -6 -1 -17 5 -26 11 -12 58 -14 304 -12 283 3 291 4 291
23 0 19 -8 20 -297 23 -201 1 -299 -1 -303 -8z"/>
<path d="M1083 524 c-6 -15 11 -34 32 -34 6 0 16 4 24 9 21 14 5 41 -24 41
-14 0 -28 -7 -32 -16z"/>
<path d="M260 400 c0 -19 7 -20 255 -20 248 0 255 1 255 20 0 19 -7 20 -255
20 -248 0 -255 -1 -255 -20z"/>
<path d="M825 410 c-13 -21 11 -31 61 -28 36 2 49 7 49 18 0 19 -99 27 -110
10z"/>
</g>
</svg>
