<?xml version="1.0" standalone="no"?>
<!DOCTYPE svg PUBLIC "-//W3C//DTD SVG 20010904//EN"
 "http://www.w3.org/TR/2001/REC-SVG-20010904/DTD/svg10.dtd">
<svg version="1.0" xmlns="http://www.w3.org/2000/svg"
 width="117.000000pt" height="117.000000pt" viewBox="0 0 117.000000 117.000000"
 preserveAspectRatio="xMidYMid meet">

<g transform="translate(0.000000,117.000000) scale(0.100000,-0.100000)"
fill="#000000" stroke="none">
<path d="M442 1150 c-306 -82 -494 -384 -428 -683 27 -120 116 -280 146 -262
17 11 11 31 -24 84 -58 86 -79 153 -84 272 -3 81 0 121 13 165 23 79 67 161
118 218 l42 46 115 -141 c63 -78 116 -146 118 -150 2 -4 -9 -14 -25 -22 -26
-14 -30 -13 -56 9 -54 47 -157 22 -192 -45 -46 -90 30 -200 129 -187 22 2 52
14 67 25 l29 21 98 -57 99 -58 -1 -52 c0 -56 17 -89 66 -126 38 -28 105 -32
150 -9 l37 20 26 -34 25 -33 -52 -31 c-95 -55 -175 -73 -296 -68 -87 4 -119
10 -172 32 -80 34 -93 36 -98 13 -3 -13 11 -24 50 -42 367 -170 796 85 825
491 15 207 -98 429 -271 533 -141 84 -309 111 -454 71z m289 -46 c178 -52 321
-195 373 -373 21 -72 21 -220 0 -292 -22 -75 -67 -157 -117 -213 l-42 -47 -28
35 c-26 33 -27 37 -15 80 10 40 10 51 -8 93 -26 64 -70 93 -140 93 l-52 0 -81
97 c-45 54 -81 100 -81 104 0 4 21 19 46 33 l46 26 36 -25 c49 -34 125 -35
173 -2 44 29 74 100 65 151 -15 78 -101 137 -180 122 -76 -14 -135 -99 -120
-173 5 -28 2 -33 -45 -62 -28 -17 -53 -31 -55 -31 -3 0 -153 181 -229 277 -17
22 -17 22 30 50 87 51 168 72 274 73 59 0 116 -6 150 -16z m100 -193 c43 -43
41 -101 -5 -147 -26 -26 -42 -34 -71 -34 -29 0 -45 8 -71 34 -38 38 -44 77
-19 126 20 38 41 49 93 50 35 0 49 -6 73 -29z m-497 -251 c31 -12 59 -63 50
-93 -29 -96 -164 -86 -164 13 0 39 13 61 45 78 25 14 37 14 69 2z m246 -104
c74 -90 80 -100 66 -115 -15 -14 -19 -14 -44 0 -185 107 -172 96 -172 142 0
35 5 45 28 59 15 9 30 15 34 15 3 -1 43 -47 88 -101z m253 -156 c20 -23 27
-40 27 -72 0 -24 -4 -38 -8 -32 -33 37 -112 136 -112 141 0 16 69 -11 93 -37z
m-70 -67 c58 -69 64 -79 49 -90 -19 -16 -86 -17 -113 -3 -25 14 -49 62 -49 97
0 29 24 73 40 73 4 0 38 -35 73 -77z"/>
<path d="M211 166 c-14 -17 -7 -36 14 -36 22 0 29 20 13 36 -13 13 -16 13 -27
0z"/>
</g>
</svg>
