<?xml version="1.0" standalone="no"?>
<!DOCTYPE svg PUBLIC "-//W3C//DTD SVG 20010904//EN"
 "http://www.w3.org/TR/2001/REC-SVG-20010904/DTD/svg10.dtd">
<svg version="1.0" xmlns="http://www.w3.org/2000/svg"
 width="121.000000pt" height="121.000000pt" viewBox="0 0 121.000000 121.000000"
 preserveAspectRatio="xMidYMid meet">

<g transform="translate(0.000000,121.000000) scale(0.100000,-0.100000)"
fill="#000000" stroke="none">
<path d="M470 1194 c-221 -47 -408 -236 -455 -459 -29 -138 -12 -277 50 -400
44 -89 99 -155 115 -139 9 9 3 23 -25 59 -82 108 -118 215 -117 349 2 319 250
569 567 570 158 0 284 -53 400 -169 118 -118 169 -241 167 -405 -2 -318 -252
-562 -572 -562 -114 0 -194 22 -294 83 -43 26 -72 37 -78 31 -13 -13 44 -59
118 -94 232 -109 503 -61 685 121 239 239 239 613 0 852 -150 150 -352 209
-561 163z"/>
<path d="M590 1076 c0 -9 17 -16 53 -21 255 -35 407 -204 407 -454 -1 -204
-117 -365 -305 -424 -94 -29 -208 -28 -290 2 -82 30 -105 35 -105 23 0 -35
141 -82 244 -82 143 0 251 46 357 150 98 97 138 195 139 335 0 219 -151 414
-364 471 -69 18 -136 18 -136 0z"/>
<path d="M472 1066 c1 -10 8 -17 13 -17 15 1 12 24 -3 29 -9 3 -13 -2 -10 -12z"/>
<path d="M355 1021 c-7 -12 12 -24 25 -16 11 7 4 25 -10 25 -5 0 -11 -4 -15
-9z"/>
<path d="M264 946 c-8 -22 3 -33 18 -18 9 9 9 15 0 24 -9 9 -13 7 -18 -6z"/>
<path d="M185 850 c-8 -13 4 -32 16 -25 12 8 12 35 0 35 -6 0 -13 -4 -16 -10z"/>
<path d="M660 675 l-134 -134 -57 54 c-62 59 -94 69 -122 37 -33 -36 -21 -63
66 -150 113 -112 112 -112 250 26 59 59 107 113 107 120 0 28 -31 6 -130 -93
-58 -58 -109 -105 -115 -105 -6 0 -46 36 -90 80 -74 74 -78 81 -63 96 16 16
21 13 81 -45 35 -33 68 -61 73 -61 5 0 72 63 149 140 77 77 146 140 153 140
26 0 24 -31 -4 -61 -21 -22 -25 -32 -17 -40 17 -17 73 42 73 75 0 32 -25 56
-58 56 -22 0 -56 -28 -162 -135z"/>
<path d="M133 728 c2 -7 10 -13 17 -13 7 0 15 6 18 13 2 7 -5 12 -18 12 -13 0
-20 -5 -17 -12z"/>
<path d="M120 605 c0 -8 7 -15 15 -15 8 0 15 7 15 15 0 8 -7 15 -15 15 -8 0
-15 -7 -15 -15z"/>
<path d="M135 491 c-7 -12 12 -24 25 -16 11 7 4 25 -10 25 -5 0 -11 -4 -15 -9z"/>
<path d="M185 380 c-7 -12 2 -30 16 -30 5 0 9 9 9 20 0 21 -15 27 -25 10z"/>
<path d="M255 280 c-3 -6 1 -13 10 -16 19 -8 30 0 20 15 -8 14 -22 14 -30 1z"/>
</g>
</svg>
